<svg xmlns="http://www.w3.org/2000/svg" xml:space="preserve" baseProfile="tiny" viewBox="0 0 256 161"><path d="M213.8 69.4c-.4 0-.8.1-1.2.1.2-2 .3-4 .3-5.9 0-34-27.5-61.5-61.5-61.5-31 0-56.7 23-60.7 52.9-4.2-1.4-8.4-2.2-12.9-2.2-23.3 0-42.3 19-42.3 42.3 0 .2.1.4.1.5-1.9-.3-3.9-.5-5.8-.5-16.7 0-30 13.4-30 29.9s13.3 29 29.9 29h184.1c23.3 0 42.3-19 42.3-42.3s-19-42.3-42.3-42.3m-85.9 68.7c-19.1 0-34.7-15.4-35.2-34.4h-9.2L98.3 89l15 14.8H104c.5 12.7 11 23 23.8 23 6.3 0 12.1-2.5 16.3-6.5l8.1 8.1c-6.2 6-14.9 9.7-24.3 9.7m29.5-19.4-15-15h9.2v-.9c0-13.1-10.7-23.8-23.8-23.8-6.8 0-13 2.9-17.3 7.5l-8.1-8.1c6.4-6.7 15.4-10.8 25.4-10.8 19.5 0 35.3 15.8 35.3 35.2v.9h9.2z"/></svg>