<svg width="32" height="32" viewBox="0 0 32 32" fill="none" xmlns="http://www.w3.org/2000/svg">
<path d="M15.501 5C20.9578 5.00005 24.0535 8.67198 24.5039 13.1064H24.6416C28.1531 13.1065 30.9999 15.9925 31 19.5527C31 23.1131 28.1522 26 24.6406 26H19.96C14.552 25.993 5.78469 25.9708 5.75488 25.9707C2.52744 25.6636 0 22.9075 0 19.5527C0.000141966 15.9916 2.8469 13.1065 6.3584 13.1064H6.49609C6.9499 8.64307 10.0441 5 15.501 5ZM20.0479 13C19.9216 12.9985 19.7959 13.0238 19.6787 13.0752C19.5615 13.1266 19.4546 13.2034 19.3643 13.2998L13.6309 19.4209L11.6895 16.9932L11.6289 16.9238C11.45 16.7364 11.2119 16.6313 10.9639 16.6309C10.7158 16.6305 10.4772 16.735 10.2979 16.9219C10.1185 17.1089 10.0119 17.3643 10.001 17.6348C9.99008 17.9052 10.0757 18.1696 10.2393 18.373L12.8506 21.6406L12.9141 21.7119C13.0948 21.8987 13.3351 22.0022 13.584 22C13.8329 21.9978 14.0711 21.8902 14.249 21.7002L20.7109 14.8008L20.7744 14.7266C21.0906 14.318 21.0749 13.7054 20.7246 13.3154C20.6363 13.2171 20.5321 13.1381 20.416 13.084C20.2998 13.0298 20.1742 13.0015 20.0479 13Z" fill="#287A28"/>
</svg>
