<svg width="256" height="256" viewBox="0 0 256 256" fill="none" xmlns="http://www.w3.org/2000/svg">
<g clip-path="url(#clip0_7_50)">
<path d="M250.588 44.0488C205.795 46.4282 161.887 30.9391 128.5 0.982178C95.1135 30.9391 51.2054 46.4282 6.41184 44.0488C2.80699 58.0052 0.988561 72.3617 1.00018 86.7749C1.00018 165.981 55.1735 232.55 128.5 251.42C201.827 232.55 256 165.995 256 86.7749C256 72.0132 254.116 57.7049 250.588 44.0488Z" fill="#016630"/>
<path d="M93.0916 73.2137C63.152 91.5711 53.0023 130.903 70.748 161.64C79.4812 176.766 93.4858 187.349 108.847 191.782L114.284 171.264C103.98 168.202 94.5905 161.178 88.7371 151.039C76.8445 130.441 83.5716 104.028 103.43 91.4895L112.071 106.456L121.818 68.6439L84.5442 58.4083L93.0916 73.2137Z" fill="white"/>
<path d="M139.267 153.191L129.2 191.19L167.047 201.309L158.5 186.504L159.94 185.672C190.984 167.748 201.588 127.725 183.47 96.3459C174.179 80.2534 159.257 69.5575 142.59 65.448L137.153 85.9661C148.509 88.6375 158.91 95.9342 165.229 106.877C177.399 127.958 170.217 155.062 149.255 167.165L147.815 167.997L139.267 153.191Z" fill="white"/>
</g>
<defs>
<clipPath id="clip0_7_50">
<rect width="256" height="256" fill="white"/>
</clipPath>
</defs>
</svg>
