<svg width="256" height="256" viewBox="0 0 256 256" fill="none" xmlns="http://www.w3.org/2000/svg">
<g clip-path="url(#clip0_7_80)">
<path d="M250.588 44.0488C205.795 46.4282 161.887 30.9391 128.5 0.982178C95.1135 30.9391 51.2054 46.4282 6.41184 44.0488C2.80699 58.0052 0.988561 72.3617 1.00018 86.7749C1.00018 165.981 55.1735 232.55 128.5 251.42C201.827 232.55 256 165.995 256 86.7749C256 72.0132 254.116 57.7049 250.588 44.0488Z" fill="#016630"/>
<path d="M62.2235 131.709C63.1525 166.817 92.1395 195.273 127.631 195.273C145.098 195.273 161.265 188.437 172.786 177.35L157.734 162.383C149.93 169.774 139.152 174.394 127.446 174.394C103.66 174.394 84.1497 155.361 83.2204 131.895H100.503L72.6293 104.547L45.1283 131.709H62.2235Z" fill="white"/>
<path d="M154.574 131.709L182.448 159.427L210.135 131.709H193.04V130.047C193.04 94.2006 163.679 65.0049 127.446 65.0049C108.864 65.0049 92.1394 72.5813 80.2485 84.9602L95.2988 99.9272C103.289 91.4285 114.81 86.0701 127.446 86.0701C151.788 86.0701 171.671 105.841 171.671 130.047V131.709H154.574Z" fill="white"/>
</g>
<defs>
<clipPath id="clip0_7_80">
<rect width="256" height="256" fill="white"/>
</clipPath>
</defs>
</svg>
