<svg width="256" height="256" viewBox="0 0 256 256" fill="none" xmlns="http://www.w3.org/2000/svg">
<g clip-path="url(#clip0_7_40)">
<path d="M250.588 44.0488C205.795 46.4282 161.887 30.9391 128.5 0.982178C95.1135 30.9391 51.2054 46.4282 6.41184 44.0488C2.80699 58.0052 0.988561 72.3617 1.00018 86.7749C1.00018 165.981 55.1735 232.55 128.5 251.42C201.827 232.55 256 165.995 256 86.7749C256 72.0132 254.116 57.7049 250.588 44.0488Z" fill="#016630"/>
<path d="M158.5 69.9067C127.63 53.156 88.494 64.0325 70.748 94.7688C62.0145 109.896 59.8524 127.315 63.6932 142.836L84.1812 137.283C81.6818 126.83 83.0696 115.186 88.923 105.048C100.816 84.4499 127.053 77.0697 147.841 87.9984L139.2 102.964L176.819 92.4987L167.047 55.1013L158.5 69.9067Z" fill="white"/>
<path d="M112.324 149.884L74.3833 160.165L84.5442 198L93.0915 183.197L94.5314 184.027C125.575 201.95 165.54 191.122 183.656 159.743C192.946 143.651 194.748 125.378 189.973 108.89L169.486 114.441C172.852 125.611 171.732 138.268 165.415 149.21C153.242 170.291 126.18 177.625 105.217 165.522L103.775 164.69L112.324 149.884Z" fill="white"/>
</g>
<defs>
<clipPath id="clip0_7_40">
<rect width="256" height="256" fill="white"/>
</clipPath>
</defs>
</svg>
