<svg xmlns="http://www.w3.org/2000/svg" viewBox="0 0 40 40" fill="none">
  <rect width="40" height="40" rx="8" fill="#f0f4ff" stroke="#c5d9f5"/>
  <path d="M14 24.5c-2.5 0-4.5-1.9-4.5-4.2 0-1.9 1.3-3.5 3.1-3.9.5-2.5 2.7-4.4 5.4-4.4 1.8 0 3.4.9 4.4 2.2 1.1-.3 2.2-.1 3.1.5 1.3 1 1.8 2.6 1.2 4.1 1 .5 1.7 1.6 1.7 2.8 0 1.8-1.5 3.4-3.5 3.4H14z" fill="#2B4FA3" opacity="0.85"/>
  <path d="M14 24.5c-2.5 0-4.5-1.9-4.5-4.2 0-1.9 1.3-3.5 3.1-3.9.5-2.5 2.7-4.4 5.4-4.4 1.8 0 3.4.9 4.4 2.2 1.1-.3 2.2-.1 3.1.5 1.3 1 1.7 2.6 1.2 4.1 1 .5 1.7 1.6 1.7 2.8 0 1.8-1.5 3.4-3.5 3.4H14z" stroke="#2B4FA3" stroke-width="0.6"/>
</svg>
