<svg width="256" height="256" viewBox="0 0 256 256" fill="none" xmlns="http://www.w3.org/2000/svg">
<g clip-path="url(#clip0_7_70)">
<path d="M250.588 44.0488C205.795 46.4282 161.887 30.9391 128.5 0.982178C95.1135 30.9391 51.2054 46.4282 6.41184 44.0488C2.80699 58.0052 0.988561 72.3617 1.00018 86.7749C1.00018 165.981 55.1735 232.55 128.5 251.42C201.827 232.55 256 165.995 256 86.7749C256 72.0132 254.116 57.7049 250.588 44.0488Z" fill="#016630"/>
<path d="M126.061 64.7306C90.9533 65.6599 62.4976 94.6472 62.4976 130.139C62.4976 147.605 69.3344 163.773 80.4207 175.294L95.3876 160.241C87.9971 152.438 83.3769 141.66 83.3769 129.953C83.3769 106.168 102.41 86.6574 125.876 85.7281V103.01L153.223 75.1365L126.061 47.636V64.7306Z" fill="white"/>
<path d="M126.061 157.082L98.3438 184.956L126.061 212.642V195.548H127.724C163.57 195.548 192.766 166.187 192.766 129.953C192.766 111.372 185.189 94.6472 172.81 82.7563L157.843 97.8066C166.342 105.796 171.7 117.317 171.7 129.953C171.7 154.296 151.929 174.178 127.724 174.178H126.061V157.082Z" fill="white"/>
</g>
<defs>
<clipPath id="clip0_7_70">
<rect width="256" height="256" fill="white"/>
</clipPath>
</defs>
</svg>
