<svg width="262" height="261" viewBox="0 0 262 261" fill="none" xmlns="http://www.w3.org/2000/svg">
<path d="M217.924 117.396C217.517 117.396 217.11 117.524 216.702 117.524C216.906 114.956 217.008 112.39 217.008 109.95C217.008 66.2918 189.003 31 154.38 31C122.812 31 96.6403 60.5163 92.5669 98.9098C88.2899 97.1121 84.0129 96.0856 79.4303 96.0856C55.7031 96.0856 36.3547 120.469 36.3547 150.388C36.3547 150.645 36.4565 150.901 36.4565 151.03C34.5216 150.644 32.485 150.388 30.5501 150.388C13.5439 150.388 0 167.584 0 188.772C0 209.959 13.5439 226 30.4483 226H217.924C241.652 226 261 201.617 261 171.698C261 141.779 241.652 117.396 217.924 117.396Z" fill="#2B4FA3"/>
<path d="M149.272 115.822C131.499 106.178 108.967 112.44 98.75 130.136C93.7218 138.845 92.477 148.874 94.6883 157.81L106.484 154.613C105.045 148.595 105.844 141.891 109.214 136.054C116.061 124.195 131.167 119.946 143.135 126.238L138.16 134.854L159.819 128.829L154.193 107.298L149.272 115.822Z" fill="white"/>
<path d="M122.687 161.868L100.843 167.787L106.693 189.57L111.614 181.047L112.443 181.525C130.316 191.844 153.325 185.61 163.755 167.544C169.104 158.279 170.141 147.759 167.392 138.266L155.597 141.462C157.535 147.893 156.89 155.18 153.253 161.48C146.245 173.617 130.664 177.839 118.595 170.871L117.765 170.392L122.687 161.868Z" fill="white"/>
</svg>
