<svg width="261" height="261" viewBox="0 0 261 261" fill="none" xmlns="http://www.w3.org/2000/svg">
<g clip-path="url(#clip_s4)">
  <g transform="translate(0.5 0.5) scale(8.15625)">
    <path d="M24.618 9.98434C21.4561 10.1523 18.3567 9.05895 16 6.94434C13.6433 9.05895 10.5439 10.1523 7.382 9.98434C7.12754 10.9695 6.99918 11.9829 7 13.0003C7 18.5913 10.824 23.2903 16 24.6223C21.176 23.2903 25 18.5923 25 13.0003C25 11.9583 24.867 10.9483 24.618 9.98434Z" fill="#2B4FA3"/>
  </g>
  <g transform="translate(0 -18)">
    <path d="M129.596 111.842C109.383 112.377 93 129.066 93 149.5C93 159.556 96.9362 168.864 103.319 175.497L111.936 166.831C107.681 162.338 105.021 156.133 105.021 149.393C105.021 135.699 115.979 124.466 129.489 123.931V133.881L145.234 117.833L129.596 102V111.842Z" fill="white"/>
    <path d="M129.596 165.012L113.638 181.06L129.596 197V187.158H130.553C151.191 187.158 168 170.254 168 149.393C168 138.695 163.638 129.066 156.511 122.22L147.894 130.885C152.787 135.485 155.872 142.118 155.872 149.393C155.872 163.408 144.489 174.855 130.553 174.855H129.596V165.012Z" fill="white"/>
  </g>
</g>
<defs><clipPath id="clip_s4"><rect width="261" height="261" fill="white"/></clipPath></defs>
</svg>
