<svg width="32" height="32" viewBox="0 0 32 32" fill="none" xmlns="http://www.w3.org/2000/svg">
<path d="M26.7187 14.418C26.6687 14.418 26.6188 14.4305 26.5689 14.4305C26.5938 14.1804 26.6063 13.9302 26.6063 13.6926C26.6063 9.43976 23.1728 6 18.9278 6C15.0574 6 11.8486 8.87689 11.3492 12.6169C10.8248 12.4417 10.3004 12.3417 9.73859 12.3417C6.8295 12.3417 4.45728 14.7182 4.45728 17.6327C4.45728 17.6577 4.46976 17.6827 4.46976 17.6952C4.23254 17.6577 3.98283 17.6327 3.74561 17.6327C1.66055 17.6327 0 19.3088 0 21.3726C0 23.4365 1.66055 25 3.73313 25H26.7187C29.6278 25 32 22.6234 32 19.709C32 16.7946 29.6278 14.418 26.7187 14.418ZM16.0435 21.9804C13.6588 21.9804 11.7111 20.0541 11.6487 17.6776H10.5L12.3478 15.8389L14.2206 17.6901H13.0595C13.1219 19.2786 14.4329 20.567 16.031 20.567C16.8176 20.567 17.5417 20.2543 18.0661 19.7539L19.0774 20.7671C18.3034 21.5176 17.2171 21.9804 16.0435 21.9804ZM19.7267 19.5538L17.8539 17.6776H19.0025V17.565C19.0025 15.9264 17.6666 14.588 16.031 14.588C15.182 14.588 14.4079 14.9508 13.871 15.5262L12.8597 14.513C13.6588 13.6749 14.7825 13.1621 16.031 13.1621C18.4657 13.1621 20.4384 15.1384 20.4384 17.565V17.6776H21.587L19.7267 19.5538Z" fill="#2B4FA3"/>
</svg>
