<svg width="261" height="261" viewBox="0 0 261 261" fill="none" xmlns="http://www.w3.org/2000/svg">
<g clip-path="url(#clip_s2)">
  <g transform="translate(0.5 0.5) scale(8.15625)">
    <path d="M24.618 9.98434C21.4561 10.1523 18.3567 9.05895 16 6.94434C13.6433 9.05895 10.5439 10.1523 7.382 9.98434C7.12754 10.9695 6.99918 11.9829 7 13.0003C7 18.5913 10.824 23.2903 16 24.6223C21.176 23.2903 25 18.5923 25 13.0003C25 11.9583 24.867 10.9483 24.618 9.98434Z" fill="#2B4FA3"/>
  </g>
  <g transform="translate(0 -18)">
    <path d="M97.8216 131.18C88.1784 148.952 94.4402 171.485 112.136 181.702C120.845 186.73 130.874 187.975 139.81 185.764L136.613 173.968C130.595 175.407 123.891 174.608 118.054 171.238C106.195 164.391 101.946 149.285 108.238 137.317L116.854 142.292L110.829 120.633L89.2979 126.259L97.8216 131.18Z" fill="white"/>
    <path d="M143.868 157.765L149.787 179.608L171.57 173.759L163.047 168.838L163.525 168.009C173.844 150.135 167.61 127.127 149.544 116.697C140.279 111.347 129.759 110.311 120.266 113.06L123.462 124.855C129.893 122.917 137.18 123.562 143.48 127.199C155.617 134.207 159.839 149.788 152.871 161.857L152.392 162.686L143.868 157.765Z" fill="white"/>
  </g>
</g>
<defs><clipPath id="clip_s2"><rect width="261" height="261" fill="white"/></clipPath></defs>
</svg>
