<svg width="261" height="261" viewBox="0 0 261 261" fill="none" xmlns="http://www.w3.org/2000/svg">
<g clip-path="url(#clip0_1_26)">
<path d="M216.924 117.396C216.517 117.396 216.11 117.524 215.702 117.524C215.906 114.956 216.008 112.39 216.008 109.95C216.008 66.2918 188.003 31 153.38 31C121.812 31 95.6403 60.5163 91.5669 98.9098C87.2899 97.1121 83.0129 96.0856 78.4303 96.0856C54.7031 96.0856 35.3547 120.469 35.3547 150.388C35.3547 150.645 35.4565 150.901 35.4565 151.03C33.5216 150.644 31.485 150.388 29.5501 150.388C12.5439 150.388 -1 167.584 -1 188.772C-1 209.959 12.5439 226 29.4483 226H216.924C240.652 226 260 201.617 260 171.698C260 141.779 240.652 117.396 216.924 117.396Z" fill="#2B4FA3"/>
<path d="M92.8423 150.404C93.3772 170.617 110.066 187 130.5 187C140.556 187 149.864 183.064 156.497 176.681L147.831 168.064C143.338 172.319 137.133 174.979 130.393 174.979C116.699 174.979 105.466 164.021 104.931 150.511H114.881L98.8333 134.766L83 150.404H92.8423Z" fill="white"/>
<path d="M146.012 150.404L162.06 166.362L178 150.404H168.158V149.447C168.158 128.809 151.254 112 130.393 112C119.695 112 110.066 116.362 103.22 123.489L111.885 132.106C116.485 127.213 123.118 124.128 130.393 124.128C144.408 124.128 155.855 135.511 155.855 149.447V150.404H146.012Z" fill="white"/>
</g>
<defs>
<clipPath id="clip0_1_26">
<rect width="261" height="261" fill="white"/>
</clipPath>
</defs>
</svg>
