<svg width="261" height="261" viewBox="0 0 261 261" fill="none" xmlns="http://www.w3.org/2000/svg">
<g clip-path="url(#clip_s6)">
  <g transform="translate(0.5 0.5) scale(8.15625)">
    <path d="M24.618 9.98434C21.4561 10.1523 18.3567 9.05895 16 6.94434C13.6433 9.05895 10.5439 10.1523 7.382 9.98434C7.12754 10.9695 6.99918 11.9829 7 13.0003C7 18.5913 10.824 23.2903 16 24.6223C21.176 23.2903 25 18.5923 25 13.0003C25 11.9583 24.867 10.9483 24.618 9.98434Z" fill="#2B4FA3"/>
  </g>
  <g transform="translate(0 -18)">
    <path d="M164.047 129.614C153.477 112.377 130.832 106.533 113.136 116.75C104.427 121.778 98.3349 129.841 95.7821 138.685L107.595 141.815C109.359 135.883 113.403 130.477 119.24 127.107C131.099 120.26 146.306 124.133 153.524 135.566L144.908 140.541L166.677 146.153L172.57 124.693L164.047 129.614Z" fill="white"/>
    <path d="M118 156.199L96.1239 150.403L90.2979 172.193L98.8216 167.272L99.3004 168.101C109.62 185.974 132.662 192.079 150.729 181.648C159.994 176.299 166.151 167.708 168.517 158.112L156.704 154.982C155.167 161.52 150.965 167.508 144.665 171.146C132.528 178.153 116.923 174.018 109.955 161.949L109.476 161.12L118 156.199Z" fill="white"/>
  </g>
</g>
<defs><clipPath id="clip_s6"><rect width="261" height="261" fill="white"/></clipPath></defs>
</svg>
