<svg width="256" height="256" viewBox="0 0 256 256" fill="none" xmlns="http://www.w3.org/2000/svg">
<g clip-path="url(#clip0_7_60)">
<path d="M250.588 44.0488C205.795 46.4282 161.887 30.9391 128.5 0.982178C95.1135 30.9391 51.2054 46.4282 6.41184 44.0488C2.80699 58.0052 0.988561 72.3617 1.00018 86.7749C1.00018 165.981 55.1735 232.55 128.5 251.42C201.827 232.55 256 165.995 256 86.7749C256 72.0132 254.116 57.7049 250.588 44.0488Z" fill="#016630"/>
<path d="M70.872 98.3189C54.1227 129.187 64.9988 168.325 95.7348 186.071C110.862 194.804 128.281 196.967 143.802 193.126L138.249 172.638C127.796 175.137 116.152 173.749 106.014 167.896C85.4159 156.003 78.0357 129.766 88.9644 108.978L103.93 117.619L93.4647 79.9998L56.0671 89.7716L70.872 98.3189Z" fill="white"/>
<path d="M150.85 144.494L161.131 182.434L198.966 172.274L184.163 163.727L184.993 162.287C202.916 131.242 192.088 91.2789 160.709 73.163C144.617 63.8705 126.344 62.0711 109.856 66.8458L115.407 87.3327C126.577 83.9665 139.234 85.0868 150.176 91.404C171.257 103.576 178.591 130.639 166.488 151.602L165.656 153.042L150.85 144.494Z" fill="white"/>
</g>
<defs>
<clipPath id="clip0_7_60">
<rect width="256" height="256" fill="white"/>
</clipPath>
</defs>
</svg>
