<svg width="262" height="261" viewBox="0 0 262 261" fill="none" xmlns="http://www.w3.org/2000/svg">
<path d="M217.924 117.396C217.517 117.396 217.11 117.524 216.702 117.524C216.906 114.956 217.008 112.39 217.008 109.95C217.008 66.2918 189.003 31 154.38 31C122.812 31 96.6403 60.5163 92.5669 98.9098C88.2899 97.1121 84.0129 96.0856 79.4303 96.0856C55.7031 96.0856 36.3547 120.469 36.3547 150.388C36.3547 150.645 36.4565 150.901 36.4565 151.03C34.5216 150.644 32.485 150.388 30.5501 150.388C13.5439 150.388 0 167.584 0 188.772C0 209.959 13.5439 226 30.4483 226H217.924C241.652 226 261 201.617 261 171.698C261 141.779 241.652 117.396 217.924 117.396Z" fill="#2B4FA3"/>
<path d="M164.047 129.614C153.477 112.377 130.832 106.533 113.136 116.75C104.427 121.778 98.3349 129.841 95.7821 138.685L107.595 141.815C109.359 135.883 113.403 130.477 119.24 127.107C131.099 120.26 146.306 124.133 153.524 135.566L144.908 140.541L166.677 146.153L172.57 124.693L164.047 129.614Z" fill="white"/>
<path d="M118 156.199L96.1239 150.403L90.2979 172.193L98.8216 167.272L99.3004 168.101C109.62 185.974 132.662 192.079 150.729 181.648C159.994 176.299 166.151 167.708 168.517 158.112L156.704 154.982C155.167 161.52 150.965 167.508 144.665 171.146C132.528 178.153 116.923 174.018 109.955 161.949L109.476 161.12L118 156.199Z" fill="white"/>
</svg>
