<svg width="261" height="261" viewBox="0 0 261 261" fill="none" xmlns="http://www.w3.org/2000/svg">
<g clip-path="url(#clip0_1_20)">
<path d="M216.924 117.396C216.517 117.396 216.11 117.524 215.702 117.524C215.906 114.956 216.008 112.39 216.008 109.95C216.008 66.2918 188.003 31 153.38 31C121.812 31 95.6403 60.5163 91.5669 98.9098C87.2899 97.1121 83.0129 96.0856 78.4303 96.0856C54.7031 96.0856 35.3547 120.469 35.3547 150.388C35.3547 150.645 35.4565 150.901 35.4565 151.03C33.5216 150.644 31.485 150.388 29.5501 150.388C12.5439 150.388 -1 167.584 -1 188.772C-1 209.959 12.5439 226 29.4483 226H216.924C240.652 226 260 201.617 260 171.698C260 141.779 240.652 117.396 216.924 117.396Z" fill="#2B4FA3"/>
<path d="M110.614 116.726C93.3767 127.295 87.5332 149.94 97.75 167.636C102.778 176.345 110.841 182.438 119.685 184.99L122.815 173.177C116.883 171.414 111.477 167.37 108.107 161.533C101.26 149.674 105.133 134.467 116.566 127.248L121.541 135.865L127.153 114.095L105.693 108.202L110.614 116.726Z" fill="white"/>
<path d="M137.199 162.772L131.403 184.649L153.193 190.475L148.272 181.951L149.101 181.472C166.974 171.153 173.079 148.11 162.648 130.044C157.299 120.779 148.708 114.621 139.112 112.255L135.982 124.068C142.52 125.606 148.508 129.807 152.146 136.107C159.153 148.244 155.018 163.849 142.949 170.817L142.12 171.296L137.199 162.772Z" fill="white"/>
</g>
<defs>
<clipPath id="clip0_1_20">
<rect width="261" height="261" fill="white"/>
</clipPath>
</defs>
</svg>
