<svg width="261" height="261" viewBox="0 0 261 261" fill="none" xmlns="http://www.w3.org/2000/svg">
<g clip-path="url(#clip_s5)">
  <g transform="translate(0.5 0.5) scale(8.15625)">
    <path d="M24.618 9.98434C21.4561 10.1523 18.3567 9.05895 16 6.94434C13.6433 9.05895 10.5439 10.1523 7.382 9.98434C7.12754 10.9695 6.99918 11.9829 7 13.0003C7 18.5913 10.824 23.2903 16 24.6223C21.176 23.2903 25 18.5923 25 13.0003C25 11.9583 24.867 10.9483 24.618 9.98434Z" fill="#2B4FA3"/>
  </g>
  <g transform="translate(0 -18)">
    <path d="M149.272 115.822C131.499 106.178 108.967 112.44 98.75 130.136C93.7218 138.845 92.477 148.874 94.6883 157.81L106.484 154.613C105.045 148.595 105.844 141.891 109.214 136.054C116.061 124.195 131.167 119.946 143.135 126.238L138.16 134.854L159.819 128.829L154.193 107.298L149.272 115.822Z" fill="white"/>
    <path d="M122.687 161.868L100.843 167.787L106.693 189.57L111.614 181.047L112.443 181.525C130.316 191.844 153.325 185.61 163.755 167.544C169.104 158.279 170.141 147.759 167.392 138.266L155.597 141.462C157.535 147.893 156.89 155.18 153.253 161.48C146.245 173.617 130.664 177.839 118.595 170.871L117.765 170.392L122.687 161.868Z" fill="white"/>
  </g>
</g>
<defs><clipPath id="clip_s5"><rect width="261" height="261" fill="white"/></clipPath></defs>
</svg>
