<svg width="261" height="261" viewBox="0 0 261 261" fill="none" xmlns="http://www.w3.org/2000/svg">
<g clip-path="url(#clip_s3)">
  <g transform="translate(0.5 0.5) scale(8.15625)">
    <path d="M24.618 9.98434C21.4561 10.1523 18.3567 9.05895 16 6.94434C13.6433 9.05895 10.5439 10.1523 7.382 9.98434C7.12754 10.9695 6.99918 11.9829 7 13.0003C7 18.5913 10.824 23.2903 16 24.6223C21.176 23.2903 25 18.5923 25 13.0003C25 11.9583 24.867 10.9483 24.618 9.98434Z" fill="#2B4FA3"/>
  </g>
  <g transform="translate(0 -18)">
    <path d="M110.614 116.726C93.3767 127.295 87.5332 149.94 97.75 167.636C102.778 176.345 110.841 182.438 119.685 184.99L122.815 173.177C116.883 171.414 111.477 167.37 108.107 161.533C101.26 149.674 105.133 134.467 116.566 127.248L121.541 135.865L127.153 114.095L105.693 108.202L110.614 116.726Z" fill="white"/>
    <path d="M137.199 162.772L131.403 184.649L153.193 190.475L148.272 181.951L149.101 181.472C166.974 171.153 173.079 148.11 162.648 130.044C157.299 120.779 148.708 114.621 139.112 112.255L135.982 124.068C142.52 125.606 148.508 129.807 152.146 136.107C159.153 148.244 155.018 163.849 142.949 170.817L142.12 171.296L137.199 162.772Z" fill="white"/>
  </g>
</g>
<defs><clipPath id="clip_s3"><rect width="261" height="261" fill="white"/></clipPath></defs>
</svg>
