<svg width="256" height="256" viewBox="0 0 256 256" fill="none" xmlns="http://www.w3.org/2000/svg">
<path d="M250.588 44.0488C205.795 46.4282 161.887 30.9391 128.5 0.982178C95.1135 30.9391 51.2054 46.4282 6.41181 44.0488C2.80696 58.0052 0.98853 72.3617 1.00015 86.7749C1.00015 165.981 55.1734 232.55 128.5 251.42C201.827 232.55 256 165.995 256 86.7749C256 72.0132 254.116 57.7049 250.588 44.0488Z" fill="#016630"/>
<path d="M185.899 97.3359C167.54 67.3968 128.208 57.2463 97.4717 74.9923C82.345 83.7255 71.7636 97.7301 67.3296 113.091L87.8475 118.528C90.9114 108.225 97.9355 98.8348 108.074 92.9814C128.672 81.0888 155.085 87.8159 167.622 107.674L152.657 116.315L190.468 126.063L200.703 88.7885L185.899 97.3359Z" fill="white"/>
<path d="M105.92 143.512L67.9234 133.445L57.8042 171.292L72.6091 162.744L73.4407 164.184C91.3649 195.228 131.387 205.832 162.767 187.714C178.86 178.424 189.554 163.502 193.664 146.834L173.145 141.398C170.476 152.754 163.177 163.154 152.235 169.473C131.154 181.644 104.05 174.462 91.9468 153.499L91.1148 152.059L105.92 143.512Z" fill="white"/>
</svg>
