<svg width="262" height="261" viewBox="0 0 262 261" fill="none" xmlns="http://www.w3.org/2000/svg">
<path d="M217.924 117.396C217.517 117.396 217.11 117.524 216.702 117.524C216.906 114.956 217.008 112.39 217.008 109.95C217.008 66.2918 189.003 31 154.38 31C122.812 31 96.6403 60.5163 92.5669 98.9098C88.2899 97.1121 84.0129 96.0856 79.4303 96.0856C55.7031 96.0856 36.3547 120.469 36.3547 150.388C36.3547 150.645 36.4565 150.901 36.4565 151.03C34.5216 150.644 32.485 150.388 30.5501 150.388C13.5439 150.388 0 167.584 0 188.772C0 209.959 13.5439 226 30.4483 226H217.924C241.652 226 261 201.617 261 171.698C261 141.779 241.652 117.396 217.924 117.396Z" fill="#2B4FA3"/>
<path d="M129.596 111.842C109.383 112.377 93 129.066 93 149.5C93 159.556 96.9362 168.864 103.319 175.497L111.936 166.831C107.681 162.338 105.021 156.133 105.021 149.393C105.021 135.699 115.979 124.466 129.489 123.931V133.881L145.234 117.833L129.596 102V111.842Z" fill="white"/>
<path d="M129.596 165.012L113.638 181.06L129.596 197V187.158H130.553C151.191 187.158 168 170.254 168 149.393C168 138.695 163.638 129.066 156.511 122.22L147.894 130.885C152.787 135.485 155.872 142.118 155.872 149.393C155.872 163.408 144.489 174.855 130.553 174.855H129.596V165.012Z" fill="white"/>
</svg>
