<svg width="261" height="261" viewBox="0 0 261 261" fill="none" xmlns="http://www.w3.org/2000/svg">
<g clip-path="url(#clip0_1_23)">
<path d="M216.924 117.396C216.517 117.396 216.11 117.524 215.702 117.524C215.906 114.956 216.008 112.39 216.008 109.95C216.008 66.2918 188.003 31 153.38 31C121.812 31 95.6403 60.5163 91.5669 98.9098C87.2899 97.1121 83.0129 96.0856 78.4303 96.0856C54.7031 96.0856 35.3547 120.469 35.3547 150.388C35.3547 150.645 35.4565 150.901 35.4565 151.03C33.5216 150.644 31.485 150.388 29.5501 150.388C12.5439 150.388 -1 167.584 -1 188.772C-1 209.959 12.5439 226 29.4483 226H216.924C240.652 226 260 201.617 260 171.698C260 141.779 240.652 117.396 216.924 117.396Z" fill="#2B4FA3"/>
<path d="M97.8216 131.18C88.1784 148.952 94.4402 171.485 112.136 181.702C120.845 186.73 130.874 187.975 139.81 185.764L136.613 173.968C130.595 175.407 123.891 174.608 118.054 171.238C106.195 164.391 101.946 149.285 108.238 137.317L116.854 142.292L110.829 120.633L89.2979 126.259L97.8216 131.18Z" fill="white"/>
<path d="M143.868 157.765L149.787 179.608L171.57 173.759L163.047 168.838L163.525 168.009C173.844 150.135 167.61 127.127 149.544 116.697C140.279 111.347 129.759 110.311 120.266 113.06L123.462 124.855C129.893 122.917 137.18 123.562 143.48 127.199C155.617 134.207 159.839 149.788 152.871 161.857L152.392 162.686L143.868 157.765Z" fill="white"/>
</g>
<defs>
<clipPath id="clip0_1_23">
<rect width="261" height="261" fill="white"/>
</clipPath>
</defs>
</svg>
