<svg width="36" height="29" viewBox="0 0 36 29" fill="none" xmlns="http://www.w3.org/2000/svg">
    <path d="M27.499 14.526C28.136 15.176 28.163 16.196 27.588 16.877L27.473 17.001L15.723 28.501C15.3995 28.8178 14.9658 28.9969 14.513 29.0006C14.0603 29.0043 13.6237 28.8324 13.295 28.521L13.18 28.401L8.43 22.956C8.13239 22.6168 7.9773 22.1758 7.99711 21.725C8.01693 21.2742 8.21011 20.8484 8.53633 20.5367C8.86255 20.2249 9.29659 20.0512 9.74784 20.0518C10.1991 20.0524 10.6326 20.2273 10.958 20.54L11.068 20.655L14.599 24.702L25.025 14.499C25.1893 14.3382 25.3836 14.2114 25.5969 14.1258C25.8102 14.0401 26.0383 13.9973 26.2681 13.9998C26.4979 14.0023 26.725 14.0501 26.9364 14.1404C27.1478 14.2307 27.3383 14.3617 27.499 14.526ZM18.001 0C24.338 0 27.933 4.196 28.456 9.264H28.616C32.694 9.264 36 12.563 36 16.632C36 20.701 32.693 24 28.615 24H23.179L28.871 18.43L29.052 18.238C30.357 16.695 30.282 14.511 28.928 13.127C28.5835 12.7751 28.1731 12.4944 27.7202 12.3011C27.2673 12.1077 26.7807 12.0055 26.2883 12.0002C25.7959 11.9949 25.3072 12.0867 24.8503 12.2702C24.3933 12.4538 23.9769 12.7255 23.625 13.07L14.712 21.791L12.574 19.34L12.404 19.159C10.942 17.758 8.748 17.701 7.283 18.979C6.58355 19.5888 6.13506 20.4363 6.02424 21.3577C5.91341 22.279 6.14813 23.2087 6.683 23.967C2.935 23.616 0 20.466 0 16.632C0 12.562 3.306 9.264 7.384 9.264H7.544C8.071 4.163 11.663 0 18 0"
          fill="#212121"/>
</svg>